# xmcd CD database file
#
# Track frame offsets:
#	150
#	17464
#	35432
#	53723
#	68589
#	86347
#	102592
#	115659
#	131467
#	154065
#	170164
#	198796
#
# Disc length: 2789 seconds
#
# Revision: 0
# Processed by: cddbd v1.5.2PL0 Copyright (c) Steve Scherf et al.
# Submitted via: CDex 1.70beta2
#
DISCID=900ae30c
DTITLE=Various Artist - Blues Alive X
DYEAR=2005
DGENRE=Blues
TTITLE0=Boogie Boys - Boogie Woogie Cala Noc
TTITLE1=Hubert Sumlin Band - Who's Been Talkin'
TTITLE2=Jakub Korinek - Slepa
TTITLE3=Jan Tater Bug and Hoochie Coochie Jug Band - Jack O'Diamonds
TTITLE4=Jana Ruzickova and Blues House - Start It Up
TTITLE5=Jimmy D.Lane Band - Clue Me
TTITLE6=Juraj Mojo Harustiak and Blues Banda - Diggin' My Potatoes
TTITLE7=Veterani Zo Salon Dore - Matika, Fyzika
TTITLE8=Jugging Stones - It's All Over Now
TTITLE9=Smokin' Joe Kubek - Better Be Getting It On
TTITLE10=Sugar Blue and GK Brothers Band - Lip Service And Lies
TTITLE11=Jiri Schmitzer - Kaluz
EXTD=YEAR: 2005
EXTT0=
EXTT1=
EXTT2=
EXTT3=
EXTT4=
EXTT5=
EXTT6=
EXTT7=
EXTT8=
EXTT9=
EXTT10=
EXTT11=
PLAYORDER=
